<svg width="22" height="20" viewBox="0 0 22 20" fill="none" xmlns="http://www.w3.org/2000/svg">
<g filter="url(#filter0_d_57_1110)">
<path d="M11 0.0625C9.23233 0.0625 7.50436 0.586675 6.03459 1.56874C4.56483 2.55081 3.41929 3.94665 2.74283 5.57977C2.06637 7.21288 1.88938 9.00991 2.23424 10.7436C2.57909 12.4773 3.43031 14.0698 4.68024 15.3198C5.93017 16.5697 7.52268 17.4209 9.25638 17.7658C10.9901 18.1106 12.7871 17.9336 14.4202 17.2572C16.0534 16.5807 17.4492 15.4352 18.4313 13.9654C19.4133 12.4956 19.9375 10.7677 19.9375 9C19.935 6.6304 18.9926 4.35856 17.317 2.683C15.6414 1.00743 13.3696 0.0650023 11 0.0625ZM11.6875 16.5307V11.0625H13.75C13.9323 11.0625 14.1072 10.9901 14.2361 10.8611C14.3651 10.7322 14.4375 10.5573 14.4375 10.375C14.4375 10.1927 14.3651 10.0178 14.2361 9.88886C14.1072 9.75993 13.9323 9.6875 13.75 9.6875H11.6875V7.625C11.6875 7.26033 11.8324 6.91059 12.0902 6.65273C12.3481 6.39487 12.6978 6.25 13.0625 6.25H14.4375C14.6198 6.25 14.7947 6.17757 14.9236 6.04864C15.0526 5.9197 15.125 5.74484 15.125 5.5625C15.125 5.38016 15.0526 5.2053 14.9236 5.07636C14.7947 4.94743 14.6198 4.875 14.4375 4.875H13.0625C12.3332 4.875 11.6337 5.16473 11.118 5.68046C10.6022 6.19618 10.3125 6.89565 10.3125 7.625V9.6875H8.25C8.06767 9.6875 7.8928 9.75993 7.76387 9.88886C7.63494 10.0178 7.5625 10.1927 7.5625 10.375C7.5625 10.5573 7.63494 10.7322 7.76387 10.8611C7.8928 10.9901 8.06767 11.0625 8.25 11.0625H10.3125V16.5307C8.37444 16.3538 6.57918 15.4365 5.30015 13.9697C4.02112 12.5029 3.35678 10.5995 3.44534 8.65541C3.53389 6.7113 4.36851 4.87616 5.77559 3.53172C7.18266 2.18727 9.05388 1.43702 11 1.43702C12.9461 1.43702 14.8173 2.18727 16.2244 3.53172C17.6315 4.87616 18.4661 6.7113 18.5547 8.65541C18.6432 10.5995 17.9789 12.5029 16.6999 13.9697C15.4208 15.4365 13.6256 16.3538 11.6875 16.5307Z" fill="black"/>
<path d="M11.1875 16.5307V17.0784L11.733 17.0286C13.7992 16.84 15.7131 15.8621 17.0767 14.2983C18.4403 12.7346 19.1486 10.7053 19.0542 8.63266C18.9597 6.56001 18.0699 4.60354 16.5698 3.17021C15.0697 1.73687 13.0748 0.937018 11 0.937018C8.92521 0.937018 6.93028 1.73687 5.43017 3.17021C3.93006 4.60354 3.04026 6.56001 2.94585 8.63266C2.85145 10.7053 3.5597 12.7346 4.9233 14.2983C6.28689 15.8621 8.20085 16.84 10.267 17.0286L10.8125 17.0784V16.5307V11.0625V10.5625H10.3125H8.25C8.20027 10.5625 8.15258 10.5427 8.11742 10.5076C8.08226 10.4724 8.0625 10.4247 8.0625 10.375C8.0625 10.3253 8.08226 10.2776 8.11742 10.2424C8.15258 10.2073 8.20027 10.1875 8.25 10.1875H10.3125H10.8125V9.6875V7.625C10.8125 7.02826 11.0496 6.45597 11.4715 6.03401C11.8935 5.61205 12.4658 5.375 13.0625 5.375H14.4375C14.4872 5.375 14.5349 5.39475 14.5701 5.42992C14.6052 5.46508 14.625 5.51277 14.625 5.5625C14.625 5.61223 14.6052 5.65992 14.5701 5.69508C14.5349 5.73025 14.4872 5.75 14.4375 5.75H13.0625C12.5652 5.75 12.0883 5.94754 11.7367 6.29918C11.385 6.65081 11.1875 7.12772 11.1875 7.625V9.6875V10.1875H11.6875H13.75C13.7997 10.1875 13.8474 10.2073 13.8826 10.2424C13.9177 10.2776 13.9375 10.3253 13.9375 10.375C13.9375 10.4247 13.9177 10.4724 13.8826 10.5076C13.8474 10.5427 13.7997 10.5625 13.75 10.5625H11.6875H11.1875V11.0625V16.5307ZM6.31238 1.98448C7.69984 1.0574 9.33105 0.562554 10.9997 0.5625C13.2368 0.564929 15.3816 1.45468 16.9635 3.03655C18.5454 4.61848 19.4351 6.76335 19.4375 9.00053C19.4374 10.6691 18.9426 12.3002 18.0155 13.6876C17.0884 15.0752 15.7706 16.1566 14.2289 16.7952C12.6871 17.4338 10.9906 17.6009 9.35393 17.2754C7.71721 16.9498 6.2138 16.1462 5.03379 14.9662C3.85378 13.7862 3.05019 12.2828 2.72463 10.6461C2.39907 9.00936 2.56616 7.31286 3.20477 5.77111C3.84338 4.22936 4.92484 2.9116 6.31238 1.98448Z" stroke="black"/>
</g>
<defs>
<filter id="filter0_d_57_1110" x="-1.9375" y="0.0625" width="25.875" height="25.875" filterUnits="userSpaceOnUse" color-interpolation-filters="sRGB">
<feFlood flood-opacity="0" result="BackgroundImageFix"/>
<feColorMatrix in="SourceAlpha" type="matrix" values="0 0 0 0 0 0 0 0 0 0 0 0 0 0 0 0 0 0 127 0" result="hardAlpha"/>
<feOffset dy="4"/>
<feGaussianBlur stdDeviation="2"/>
<feComposite in2="hardAlpha" operator="out"/>
<feColorMatrix type="matrix" values="0 0 0 0 0 0 0 0 0 0 0 0 0 0 0 0 0 0 0.25 0"/>
<feBlend mode="normal" in2="BackgroundImageFix" result="effect1_dropShadow_57_1110"/>
<feBlend mode="normal" in="SourceGraphic" in2="effect1_dropShadow_57_1110" result="shape"/>
</filter>
</defs>
</svg>
